# xmcd CD database file
#
# Track frame offsets:
#	150
#	12987
#	38390
#	62455
#
# Disc length: 1183 seconds
#
# Revision: 2
# Processed by: cddbd v1.5PL3 Copyright (c) Steve Scherf et al.
# Submitted via: CDex 1.51
#
DISCID=21049d04
DTITLE=Bellini - Samba De Janeiro
DYEAR=1900
DGENRE=
TTITLE0=Samba De Janeiro (Radio Edit)
TTITLE1=Samba De Janeiro (Club Mix)
TTITLE2=Samba De Janeiro (Vanity Back Yard Remix)
TTITLE3=Samba De Janeiro (Peter Parker Remix)
EXTD=
EXTT0=
EXTT1=
EXTT2=
EXTT3=
PLAYORDER=
